<svg t="1699190595526" class="icon" viewBox="0 0 1024 1024" version="1.1" xmlns="http://www.w3.org/2000/svg" p-id="13409" width="200" height="200"><path d="M510.44352 122.88a71.68 71.68 0 0 1 20.48 140.3904v66.16064l59.67872-59.67872a20.48 20.48 0 0 1 27.66848-1.19808l1.30048 1.19808a20.48 20.48 0 0 1 1.19808 27.65824l-1.19808 1.31072-86.8864 86.8864a20.69504 20.69504 0 0 1-1.75104 1.55648v14.04928a112.5376 112.5376 0 0 1 65.19808 37.66272l12.17536-7.03488c0.11264-0.768 0.27648-1.536 0.48128-2.29376l31.7952-118.69184a20.48 20.48 0 0 1 39.56736 10.5984l-21.84192 81.5104 57.2928-33.0752a71.68 71.68 0 1 1 20.48 35.4816l-57.2928 33.0752 81.53088 21.85216a20.48 20.48 0 0 1 14.85824 23.35744l-0.37888 1.73056a20.48 20.48 0 0 1-23.35744 14.85824l-1.73056-0.37888-118.6816-31.80544a20.69504 20.69504 0 0 1-2.23232-0.72704l-12.16512 7.0144c4.17792 11.776 6.4512 24.45312 6.4512 37.65248 0 13.2096-2.27328 25.87648-6.4512 37.65248l12.16512 7.0144c0.7168-0.27648 1.46432-0.52224 2.22208-0.72704l118.69184-31.80544a20.48 20.48 0 1 1 10.60864 39.56736l-81.52064 21.84192 57.2928 33.0752a71.68 71.68 0 1 1-20.48 35.4816l-57.2928-33.08544 21.83168 81.53088a20.48 20.48 0 0 1-12.8 24.55552l-1.67936 0.53248a20.48 20.48 0 0 1-24.55552-12.8l-0.53248-1.6896-31.7952-118.6816a20.69504 20.69504 0 0 1-0.48128-2.304l-12.1856-7.03488a112.5376 112.5376 0 0 1-65.19808 37.66272v14.04928c0.6144 0.48128 1.19808 1.00352 1.76128 1.55648l86.8864 86.8864a20.48 20.48 0 1 1-28.96896 28.96896l-59.66848-59.67872v66.16064a71.68 71.68 0 1 1-40.96 0v-66.16064l-59.6992 59.67872a20.48 20.48 0 0 1-27.648 1.19808l-1.31072-1.19808a20.48 20.48 0 0 1-1.19808-27.65824l1.19808-1.31072 86.8864-86.8864c0.5632-0.55296 1.14688-1.0752 1.75104-1.55648v-14.05952a112.5376 112.5376 0 0 1-65.19808-37.65248l-12.1856 7.03488c-0.1024 0.768-0.26624 1.536-0.47104 2.29376l-31.80544 118.69184a20.48 20.48 0 0 1-39.55712-10.5984l21.84192-81.5104-57.30304 33.0752a71.68 71.68 0 1 1-20.48-35.4816l57.30304-33.0752-81.53088-21.85216a20.48 20.48 0 0 1-14.85824-23.35744l0.37888-1.73056a20.48 20.48 0 0 1 23.35744-14.85824l1.73056 0.37888 118.6816 31.80544c0.768 0.2048 1.51552 0.45056 2.23232 0.72704l12.15488-7.0144A112.45568 112.45568 0 0 1 397.80352 512c0-13.2096 2.27328-25.87648 6.4512-37.65248l-12.16512-7.0144c-0.7168 0.27648-1.46432 0.52224-2.22208 0.72704l-118.69184 31.80544a20.48 20.48 0 1 1-10.60864-39.56736l81.52064-21.84192-57.2928-33.0752a71.68 71.68 0 1 1 20.48-35.4816l57.2928 33.08544-21.83168-81.53088a20.48 20.48 0 0 1 12.8-24.55552l1.67936-0.53248a20.48 20.48 0 0 1 24.55552 12.8l0.52224 1.6896 31.80544 118.6816c0.2048 0.768 0.36864 1.536 0.48128 2.304l12.1856 7.03488a112.5376 112.5376 0 0 1 65.18784-37.65248v-14.05952a20.69504 20.69504 0 0 1-1.7408-1.55648l-86.89664-86.8864a20.48 20.48 0 1 1 28.96896-28.96896l59.66848 59.67872V263.2704a71.68 71.68 0 0 1 20.48-140.3904z" fill="#ABE4FE" p-id="13410"></path></svg>